<svg xmlns="http://www.w3.org/2000/svg" width="34.113" height="34.354" viewBox="0 0 34.113 34.354">
  <path id="Path_32" data-name="Path 32" d="M18.018-16.176l8.408-8.488,1.842,1.842-10.25,10.25-5.445-5.445,1.762-1.762ZM12.052-10.33A11.438,11.438,0,0,0,20.5-6.807a11.438,11.438,0,0,0,8.448-3.523,11.637,11.637,0,0,0,3.483-8.488,11.5,11.5,0,0,0-3.483-8.448A11.5,11.5,0,0,0,20.5-30.75a11.5,11.5,0,0,0-8.448,3.483,11.5,11.5,0,0,0-3.483,8.448A11.637,11.637,0,0,0,12.052-10.33ZM9.609-29.669A14.761,14.761,0,0,1,20.5-34.193a14.761,14.761,0,0,1,10.891,4.524,14.866,14.866,0,0,1,4.484,10.851A14.866,14.866,0,0,1,31.391-7.968,14.761,14.761,0,0,1,20.5-3.443,14.761,14.761,0,0,1,9.609-7.968,14.866,14.866,0,0,1,5.125-18.818,14.866,14.866,0,0,1,9.609-29.669Zm3.844-5.565L5.605-28.668,3.443-31.23,11.291-37.8Zm24.1,4-2.162,2.643-7.848-6.646L29.709-37.8Z" transform="translate(-3.443 37.797)" fill="#fff"/>
</svg>
