<svg  xmlns="http://www.w3.org/2000/svg" width="350" height="40" viewBox="0 0 541.42 82.309"><g _ngcontent-serverApp-c19="" id="Matogen_Base" data-name="Matogen Base" transform="translate(-543 -399.745)"><g _ngcontent-serverApp-c19="" id="logo" transform="translate(543 300.752)"><path _ngcontent-serverApp-c19="" id="Path_397" data-name="Path 397" d="M226.932,145.33H200.373a3.072,3.072,0,0,0-2.476,1.658l-5.671,11.621c-.223.459,0,.833.431.833h4.407a1.543,1.543,0,0,0,1.242-.833l2.225-4.558h17.708l-2.232,4.565c-.223.452,0,.825.423.825h4.443a1.536,1.536,0,0,0,1.242-.833l5.671-11.621C228.231,146.069,227.85,145.33,226.932,145.33Zm-6.618,4.465a1.8,1.8,0,0,1-1.436.969H203.086c-.524,0-.718-.438-.488-.969a1.8,1.8,0,0,1,1.436-.962h15.792c.523,0,.746.438.487.962Z" transform="translate(-54.221 -13.076)" fill="#ffffff"></path><path _ngcontent-serverApp-c19="" id="Path_398" data-name="Path 398" d="M110.175,99.091l-74.128,9.023c-6.252.8-14.227,6.388-17.708,12.425l-16.7,35.33c-3.489,6.044-1.22,10.329,5.025,9.54l74.027-9.238c3.819-.481,8.276-2.778,11.966-5.85H74.594l-1.945-3.8L81.98,127.33l-1.687-3.288H71.679l-4.917,3.309L56.82,147.808l-3.79,2.548H44.259l-1.952-3.812,9.375-19.194L42.35,146.524l9.331-19.18-1.687-3.3H24.29l2.268-4.608a7.59,7.59,0,0,1,6.094-4.091H98.877c2.283,0,3.223,1.845,2.118,4.12L87.851,146.373h8.736a21,21,0,0,0,1.823-2.62l16.8-35.115C118.7,102.587,116.427,98.28,110.175,99.091Zm-72.85,29.337-9.54,19.445-3.768,2.534H15.31l-1.988-3.883,8.843-18.1Z" fill="#ffffff"></path><path _ngcontent-serverApp-c19="" id="Path_399" data-name="Path 399" d="M247.558,145.32l-1.708,3.51H257.9l-4.666,9.561.538,1.048h4.013l1.543-1.034,4.666-9.576H276l1.708-3.51Z" transform="translate(-69.378 -13.073)" fill="#ffffff"></path><path _ngcontent-serverApp-c19="" id="Path_400" data-name="Path 400" d="M318.325,145.33H296.217a4.594,4.594,0,0,0-3.7,2.476L289.6,153.8c-1.522,3.115-.23,5.642,2.871,5.642h22.116a4.615,4.615,0,0,0,3.7-2.491l2.914-5.979C322.726,147.849,321.448,145.33,318.325,145.33Zm-3.388,6-1.594,3.28a2.469,2.469,0,0,1-1.974,1.321H297.157c-1.378,0-1.952-1.113-1.278-2.491l1.594-3.273a2.455,2.455,0,0,1,1.981-1.335H313.66c1.378,0,1.952,1.121,1.277,2.5Z" transform="translate(-81.544 -13.076)" fill="#ffffff"></path><path _ngcontent-serverApp-c19="" id="Path_401" data-name="Path 401" d="M345.169,148.833h24.24l.9-1.845c.452-.919.072-1.658-.847-1.658h-27.02a3.072,3.072,0,0,0-2.476,1.658l-.9,1.845-3.489,7.1-.9,1.852c-.452.912-.072,1.658.847,1.658h20.917a3.079,3.079,0,0,0,2.476-1.665l-.782,1.672h6.1l2.627-5.391,1.608-3.288H356.145l-1.6,3.288h6.216l-.919,1.881h-16.89c-.718,0-.976-.56-.639-1.242Z" transform="translate(-94.39 -13.076)" fill="#ffffff"></path><path _ngcontent-serverApp-c19="" id="Path_402" data-name="Path 402" d="M414.7,150.764H392.121c-.531,0-.718-.438-.5-.969a1.787,1.787,0,0,1,1.436-.962h23.817l1.105-2.261c.337-.718.05-1.242-.639-1.242h-27a3.058,3.058,0,0,0-2.462,1.658l-4.343,8.872c-.955,1.967-.144,3.589,1.83,3.589H411.7l1.105-2.268c.337-.718.05-1.242-.639-1.242H389.579c-.524,0-.718-.424-.488-.94a1.744,1.744,0,0,1,1.4-.94h23.846l1-2.053C415.672,151.316,415.385,150.764,414.7,150.764Z" transform="translate(-108.121 -13.076)" fill="#ffffff"></path><path _ngcontent-serverApp-c19="" id="Path_403" data-name="Path 403" d="M459.467,145.32l-4.257,8.729-11.126-8.729h-8.341l-6.884,14.119h6.1l4.946-10.135,12.676,10.135h6.1l6.884-14.119Z" transform="translate(-121.022 -13.073)" fill="#ffffff"></path><path _ngcontent-serverApp-c19="" id="Path_404" data-name="Path 404" d="M181.566,145.33h-26.71a3.051,3.051,0,0,0-2.462,1.651l-.9,1.852h10.358l.718,1.335h0l-3.776,7.738.79,1.536h3.539l1.529-1.026,4.02-8.248,1.988-1.335h3.453l.675,1.328-3.776,7.745.79,1.529h3.539l1.529-1.026,5.57-11.42C182.865,146.069,182.485,145.33,181.566,145.33Z" transform="translate(-42.75 -13.076)" fill="#ffffff"></path><path _ngcontent-serverApp-c19="" id="Path_405" data-name="Path 405" d="M145.33,159.808l.8,1.565h3.51l1.522-1.026,4.041-8.276h-6.1Z" transform="translate(-41.012 -14.978)" fill="#ffffff"></path></g><path _ngcontent-serverApp-c19="" id="Path_2" data-name="Path 2" d="M6.461-.041H2.68L.812,3.5H-.628L5.463-7.641H6.789L8.192,3.5H6.9ZM6.324-1.23,6.057-3.509a25.738,25.738,0,0,1-.221-2.668q-.282.671-.614,1.334T3.32-1.23ZM13.8-4.988A2.224,2.224,0,0,1,15.944-3.54h.076a17.56,17.56,0,0,1,.343-2.089l.595-2.729h1.265L15.708,3.5h-1.06l.168-1.593h-.061A5.724,5.724,0,0,1,13.314,3.26a2.692,2.692,0,0,1-1.387.4,2,2,0,0,1-1.654-.747A3.248,3.248,0,0,1,9.678.836a7.9,7.9,0,0,1,.549-2.988,4.984,4.984,0,0,1,1.483-2.1A3.286,3.286,0,0,1,13.8-4.988ZM12.354,2.6a2.221,2.221,0,0,0,1.479-.713A5,5,0,0,0,15.041.062a6.01,6.01,0,0,0,.446-2.26,1.825,1.825,0,0,0-.412-1.288,1.556,1.556,0,0,0-1.2-.442,2.039,2.039,0,0,0-1.429.629,4.421,4.421,0,0,0-1.06,1.769,7.183,7.183,0,0,0-.4,2.4Q10.989,2.6,12.354,2.6Zm7.288.907-.953-8.355h1.281l.488,4.673q.183,1.967.183,2.76h.046q.968-2.1,1.365-2.828l2.478-4.6h1.357L21.38,3.5ZM30.024-5a2.154,2.154,0,0,1,1.25.377,2.452,2.452,0,0,1,.854,1.086h.084l.511-1.311h.968L31.915,3.5H30.9l.2-1.593h-.061a3.76,3.76,0,0,1-2.874,1.746A2.009,2.009,0,0,1,26.5,2.9,3.225,3.225,0,0,1,25.9.836a7.87,7.87,0,0,1,.541-2.943,5.084,5.084,0,0,1,1.494-2.127A3.251,3.251,0,0,1,30.024-5ZM28.576,2.6a2.146,2.146,0,0,0,1.471-.705A5.226,5.226,0,0,0,31.237.055a6.013,6.013,0,0,0,.457-2.268,1.777,1.777,0,0,0-.427-1.25,1.45,1.45,0,0,0-1.121-.465,2.1,2.1,0,0,0-1.475.656A4.423,4.423,0,0,0,27.6-1.5,7.158,7.158,0,0,0,27.211.867a2,2,0,0,0,.358,1.3A1.236,1.236,0,0,0,28.576,2.6ZM39.531,3.5l1.128-5.275a6.953,6.953,0,0,0,.152-1.1,1.082,1.082,0,0,0-.271-.77,1.136,1.136,0,0,0-.865-.29,2.26,2.26,0,0,0-1.323.457,4.07,4.07,0,0,0-1.136,1.3,6.859,6.859,0,0,0-.743,2.051L35.7,3.5H34.423l1.784-8.355h1.06L37.1-3.3h.076a5.092,5.092,0,0,1,1.414-1.315A2.84,2.84,0,0,1,40-5a2.134,2.134,0,0,1,1.528.53,1.942,1.942,0,0,1,.56,1.483,6.258,6.258,0,0,1-.175,1.372L40.827,3.5Zm7.311.152a3.1,3.1,0,0,1-2.295-.816,3.113,3.113,0,0,1-.816-2.3A6.936,6.936,0,0,1,44.3-2.274a4.776,4.776,0,0,1,1.559-2.009A3.722,3.722,0,0,1,48.091-5a5.587,5.587,0,0,1,2.043.389L49.776-3.54a4.313,4.313,0,0,0-1.669-.389,2.389,2.389,0,0,0-1.559.583,3.84,3.84,0,0,0-1.105,1.624,6.244,6.244,0,0,0-.4,2.26,2.134,2.134,0,0,0,.507,1.517,1.823,1.823,0,0,0,1.4.541,3.457,3.457,0,0,0,1.037-.152,9.5,9.5,0,0,0,.961-.358v1.09A4.578,4.578,0,0,1,46.841,3.657Zm4.9-.152H50.462l1.784-8.355h1.281ZM52.6-6.985a1,1,0,0,1,.244-.7.812.812,0,0,1,.633-.271.6.6,0,0,1,.671.686,1.034,1.034,0,0,1-.255.709.769.769,0,0,1-.591.29.7.7,0,0,1-.5-.187A.693.693,0,0,1,52.6-6.985ZM59.534,3.5l1.128-5.275a6.953,6.953,0,0,0,.152-1.1,1.082,1.082,0,0,0-.271-.77,1.136,1.136,0,0,0-.865-.29,2.26,2.26,0,0,0-1.323.457,4.07,4.07,0,0,0-1.136,1.3,6.859,6.859,0,0,0-.743,2.051L55.707,3.5H54.426L56.21-4.851h1.06L57.1-3.3h.076a5.092,5.092,0,0,1,1.414-1.315A2.84,2.84,0,0,1,60.006-5a2.134,2.134,0,0,1,1.528.53,1.942,1.942,0,0,1,.56,1.483,6.258,6.258,0,0,1-.175,1.372L60.83,3.5ZM71.373-4.851l-.191.816-1.608.183a2.142,2.142,0,0,1,.313,1.2A3.092,3.092,0,0,1,69-.326a3.257,3.257,0,0,1-2.375.865,2.555,2.555,0,0,1-.64-.061q-1.06.4-1.06,1a.4.4,0,0,0,.252.415,3.043,3.043,0,0,0,.732.164l.892.107a3.972,3.972,0,0,1,2,.671,1.791,1.791,0,0,1,.621,1.479,2.489,2.489,0,0,1-1.113,2.173,5.458,5.458,0,0,1-3.133.77,4.134,4.134,0,0,1-2.317-.56,1.794,1.794,0,0,1-.839-1.582,1.964,1.964,0,0,1,.549-1.387,4.274,4.274,0,0,1,1.776-1,.993.993,0,0,1-.595-.922,1.215,1.215,0,0,1,.389-.9A4.008,4.008,0,0,1,65.221.2a2,2,0,0,1-.785-.72,2.013,2.013,0,0,1-.3-1.109,3.349,3.349,0,0,1,.911-2.424A3.094,3.094,0,0,1,67.37-5a4.594,4.594,0,0,1,1.174.152ZM63.254,4.991a1.075,1.075,0,0,0,.5.93,2.59,2.59,0,0,0,1.471.343A4.113,4.113,0,0,0,67.39,5.78a1.525,1.525,0,0,0,.781-1.368.854.854,0,0,0-.412-.747,3.3,3.3,0,0,0-1.4-.381l-1.212-.122a2.751,2.751,0,0,0-1.4.671A1.567,1.567,0,0,0,63.254,4.991Zm2.119-6.67a1.328,1.328,0,0,0,.343.987,1.3,1.3,0,0,0,.953.339,1.767,1.767,0,0,0,1.052-.32,2.036,2.036,0,0,0,.69-.88,3.054,3.054,0,0,0,.24-1.216,1.273,1.273,0,0,0-.335-.953,1.318,1.318,0,0,0-.961-.328,1.783,1.783,0,0,0-1.041.309,2.027,2.027,0,0,0-.694.861A2.9,2.9,0,0,0,65.373-1.68ZM80.421,3.5,81.55-1.771A6.269,6.269,0,0,0,81.687-2.8a.994.994,0,0,0-1.121-1.128,2.285,2.285,0,0,0-1.323.45,3.954,3.954,0,0,0-1.136,1.307A7.013,7.013,0,0,0,77.364-.1L76.595,3.5H75.314L77.83-8.357H79.11q-.137.625-.263,1.212t-.259,1.193q-.133.606-.29,1.269t-.362,1.441h.084a5.079,5.079,0,0,1,1.414-1.342,2.871,2.871,0,0,1,1.46-.4,2.079,2.079,0,0,1,1.544.549,2.112,2.112,0,0,1,.545,1.555,6.2,6.2,0,0,1-.175,1.265Q82.51-.147,81.7,3.5Zm6.891-8.355L86.169.447a5.719,5.719,0,0,0-.137,1.06A.977.977,0,0,0,87.153,2.6a2.267,2.267,0,0,0,1.319-.457A4.065,4.065,0,0,0,89.615.829,7.035,7.035,0,0,0,90.37-1.23l.762-3.621H92.4L90.636,3.5h-1.06l.168-1.548h-.091a5.006,5.006,0,0,1-1.426,1.326,2.872,2.872,0,0,1-1.4.374,2.132,2.132,0,0,1-1.532-.53,1.99,1.99,0,0,1-.556-1.513A7.146,7.146,0,0,1,84.9.3l1.113-5.153ZM98.191,3.5l1.128-5.275A6.269,6.269,0,0,0,99.457-2.8a1.3,1.3,0,0,0-.236-.831.975.975,0,0,0-.808-.3,2.049,2.049,0,0,0-1.246.457A3.981,3.981,0,0,0,96.1-2.164a7.539,7.539,0,0,0-.713,2.047L94.616,3.5H93.335l1.784-8.355h1.06L96.011-3.3h.076a4.776,4.776,0,0,1,1.323-1.3A2.608,2.608,0,0,1,98.77-5a1.731,1.731,0,0,1,1.326.5,2.265,2.265,0,0,1,.549,1.38h.061a4.9,4.9,0,0,1,1.4-1.414A2.8,2.8,0,0,1,103.6-5a2.052,2.052,0,0,1,1.5.518,2.018,2.018,0,0,1,.53,1.509,7.254,7.254,0,0,1-.168,1.357l-1.1,5.123h-1.3l1.128-5.275a6.928,6.928,0,0,0,.152-1.113,1.076,1.076,0,0,0-.263-.759,1.074,1.074,0,0,0-.827-.286,2.047,2.047,0,0,0-1.22.442,3.851,3.851,0,0,0-1.056,1.254,6.85,6.85,0,0,0-.69,1.925L99.472,3.5ZM111.372-5a2.154,2.154,0,0,1,1.25.377,2.452,2.452,0,0,1,.854,1.086h.084l.511-1.311h.968L113.262,3.5h-1.014l.2-1.593h-.061a3.76,3.76,0,0,1-2.874,1.746A2.009,2.009,0,0,1,107.85,2.9a3.225,3.225,0,0,1-.6-2.066,7.87,7.87,0,0,1,.541-2.943,5.084,5.084,0,0,1,1.494-2.127A3.251,3.251,0,0,1,111.372-5Zm-1.448,7.6a2.146,2.146,0,0,0,1.471-.705A5.226,5.226,0,0,0,112.584.055a6.013,6.013,0,0,0,.457-2.268,1.777,1.777,0,0,0-.427-1.25,1.45,1.45,0,0,0-1.121-.465,2.1,2.1,0,0,0-1.475.656A4.423,4.423,0,0,0,108.947-1.5a7.158,7.158,0,0,0-.389,2.363,2,2,0,0,0,.358,1.3A1.236,1.236,0,0,0,109.923,2.6Zm10.955.907,1.128-5.275a6.953,6.953,0,0,0,.152-1.1,1.082,1.082,0,0,0-.271-.77,1.136,1.136,0,0,0-.865-.29,2.26,2.26,0,0,0-1.323.457,4.07,4.07,0,0,0-1.136,1.3,6.859,6.859,0,0,0-.743,2.051l-.77,3.621H115.77l1.784-8.355h1.06L118.446-3.3h.076a5.092,5.092,0,0,1,1.414-1.315A2.84,2.84,0,0,1,121.35-5a2.134,2.134,0,0,1,1.528.53,1.942,1.942,0,0,1,.56,1.483,6.257,6.257,0,0,1-.175,1.372L122.174,3.5Zm11.663.152a2.237,2.237,0,0,1-1.3-.381,2.475,2.475,0,0,1-.861-1.067h-.076l-.031.29q-.023.191-.08.534t-.873,4.223h-1.265L130.62-4.851h1.06l-.2,1.593h.061a3.744,3.744,0,0,1,2.836-1.73,2.005,2.005,0,0,1,1.647.743,3.229,3.229,0,0,1,.6,2.085A8.1,8.1,0,0,1,136.1.806a4.924,4.924,0,0,1-1.456,2.1A3.26,3.26,0,0,1,132.541,3.657Zm1.418-7.585a2.2,2.2,0,0,0-1.49.724,5.164,5.164,0,0,0-1.2,1.822,5.924,5.924,0,0,0-.446,2.249,1.8,1.8,0,0,0,.423,1.285,1.607,1.607,0,0,0,1.224.446,2.016,2.016,0,0,0,1.406-.617A4.335,4.335,0,0,0,134.92.222a7.315,7.315,0,0,0,.4-2.42Q135.316-3.928,133.959-3.928ZM143.13-5a3.479,3.479,0,0,1,.915.107l-.274,1.143a3.351,3.351,0,0,0-.8-.1,2.118,2.118,0,0,0-1.3.457,4,4,0,0,0-1.06,1.269,6.463,6.463,0,0,0-.667,1.8L139.128,3.5h-1.281l1.784-8.355h1.06L140.523-3.3h.076a7.491,7.491,0,0,1,.907-1.041,2.876,2.876,0,0,1,.751-.488A2.158,2.158,0,0,1,143.13-5Zm5.351.046a3.052,3.052,0,0,1,2.287.858,3.23,3.23,0,0,1,.839,2.359,6.762,6.762,0,0,1-.549,2.706,4.681,4.681,0,0,1-1.487,1.967,3.474,3.474,0,0,1-2.119.694,3.039,3.039,0,0,1-2.295-.861,3.251,3.251,0,0,1-.831-2.356,6.747,6.747,0,0,1,.556-2.725,4.619,4.619,0,0,1,1.5-1.959A3.5,3.5,0,0,1,148.481-4.957Zm1.8,3.042a2.082,2.082,0,0,0-.476-1.422,1.628,1.628,0,0,0-1.292-.545,2.231,2.231,0,0,0-1.49.564A3.631,3.631,0,0,0,146-1.752a6.525,6.525,0,0,0-.362,2.23,2.248,2.248,0,0,0,.484,1.544,1.763,1.763,0,0,0,1.391.545,2.1,2.1,0,0,0,1.426-.556,3.635,3.635,0,0,0,.987-1.582A7.157,7.157,0,0,0,150.28-1.916Zm10.444-2.935-.191.816-1.608.183a2.142,2.142,0,0,1,.313,1.2,3.092,3.092,0,0,1-.888,2.321,3.257,3.257,0,0,1-2.375.865,2.555,2.555,0,0,1-.64-.061q-1.06.4-1.06,1a.4.4,0,0,0,.252.415,3.043,3.043,0,0,0,.732.164l.892.107a3.972,3.972,0,0,1,2,.671,1.791,1.791,0,0,1,.621,1.479,2.489,2.489,0,0,1-1.113,2.173,5.458,5.458,0,0,1-3.133.77,4.134,4.134,0,0,1-2.317-.56,1.794,1.794,0,0,1-.839-1.582,1.964,1.964,0,0,1,.549-1.387,4.274,4.274,0,0,1,1.776-1A.993.993,0,0,1,153.1,1.8a1.215,1.215,0,0,1,.389-.9A4.008,4.008,0,0,1,154.572.2a2,2,0,0,1-.785-.72,2.013,2.013,0,0,1-.3-1.109,3.349,3.349,0,0,1,.911-2.424A3.094,3.094,0,0,1,156.722-5a4.594,4.594,0,0,1,1.174.152Zm-8.119,9.842a1.075,1.075,0,0,0,.5.93,2.59,2.59,0,0,0,1.471.343,4.113,4.113,0,0,0,2.169-.484,1.525,1.525,0,0,0,.781-1.368.854.854,0,0,0-.412-.747,3.3,3.3,0,0,0-1.4-.381L154.5,3.161a2.75,2.75,0,0,0-1.4.671A1.567,1.567,0,0,0,152.605,4.991Zm2.119-6.67a1.328,1.328,0,0,0,.343.987,1.3,1.3,0,0,0,.953.339,1.767,1.767,0,0,0,1.052-.32,2.036,2.036,0,0,0,.69-.88A3.054,3.054,0,0,0,158-2.77a1.273,1.273,0,0,0-.335-.953,1.318,1.318,0,0,0-.961-.328,1.783,1.783,0,0,0-1.041.309,2.027,2.027,0,0,0-.694.861A2.9,2.9,0,0,0,154.725-1.68ZM165.893-5a3.479,3.479,0,0,1,.915.107l-.274,1.143a3.351,3.351,0,0,0-.8-.1,2.118,2.118,0,0,0-1.3.457,4,4,0,0,0-1.06,1.269,6.463,6.463,0,0,0-.667,1.8L161.89,3.5H160.61l1.784-8.355h1.06L163.286-3.3h.076a7.491,7.491,0,0,1,.907-1.041,2.876,2.876,0,0,1,.751-.488A2.158,2.158,0,0,1,165.893-5Zm4.2,8.66a2.915,2.915,0,0,1-2.2-.831,3.181,3.181,0,0,1-.8-2.3,6.86,6.86,0,0,1,.568-2.748,5.086,5.086,0,0,1,1.506-2.047A3.281,3.281,0,0,1,171.229-5a2.62,2.62,0,0,1,1.753.507,1.769,1.769,0,0,1,.587,1.414A2.416,2.416,0,0,1,172.3-.929a6.93,6.93,0,0,1-3.621.781h-.252l-.03.61a2.359,2.359,0,0,0,.469,1.559,1.787,1.787,0,0,0,1.452.56,3.771,3.771,0,0,0,.987-.137,7.558,7.558,0,0,0,1.262-.5V3.055a6.909,6.909,0,0,1-1.265.469A5.133,5.133,0,0,1,170.093,3.657Zm1.06-7.57a2.037,2.037,0,0,0-1.475.717,4.68,4.68,0,0,0-1.056,1.99h.091a6.223,6.223,0,0,0,2.664-.454,1.424,1.424,0,0,0,.926-1.315.89.89,0,0,0-.278-.671A1.225,1.225,0,0,0,171.153-3.913Zm8.492,5.047A2.235,2.235,0,0,1,178.8,2.99a3.741,3.741,0,0,1-2.375.667,5.065,5.065,0,0,1-2.325-.526v-1.2a4.746,4.746,0,0,0,1.151.5A4.206,4.206,0,0,0,176.4,2.6a2.324,2.324,0,0,0,1.448-.381,1.185,1.185,0,0,0,.488-.976,1.056,1.056,0,0,0-.267-.732,5.377,5.377,0,0,0-1.151-.816,4.637,4.637,0,0,1-1.4-1.09,2.011,2.011,0,0,1-.412-1.265,2.1,2.1,0,0,1,.77-1.7A3.056,3.056,0,0,1,177.9-5a5.9,5.9,0,0,1,2.516.564L180-3.395l-.427-.191a4.237,4.237,0,0,0-1.677-.328,1.7,1.7,0,0,0-1.113.332,1.058,1.058,0,0,0-.4.858,1.065,1.065,0,0,0,.271.732,4.775,4.775,0,0,0,1.117.785,6.494,6.494,0,0,1,1.17.785,2.267,2.267,0,0,1,.53.705A1.994,1.994,0,0,1,179.645,1.133Zm6.686,0a2.235,2.235,0,0,1-.842,1.856,3.741,3.741,0,0,1-2.375.667,5.065,5.065,0,0,1-2.325-.526v-1.2a4.745,4.745,0,0,0,1.151.5,4.206,4.206,0,0,0,1.143.175,2.324,2.324,0,0,0,1.448-.381,1.185,1.185,0,0,0,.488-.976,1.056,1.056,0,0,0-.267-.732A5.376,5.376,0,0,0,183.6-.307a4.637,4.637,0,0,1-1.4-1.09,2.011,2.011,0,0,1-.412-1.265,2.1,2.1,0,0,1,.77-1.7A3.056,3.056,0,0,1,184.585-5a5.9,5.9,0,0,1,2.516.564l-.412,1.044-.427-.191a4.237,4.237,0,0,0-1.677-.328,1.7,1.7,0,0,0-1.113.332,1.058,1.058,0,0,0-.4.858,1.065,1.065,0,0,0,.271.732,4.775,4.775,0,0,0,1.117.785,6.494,6.494,0,0,1,1.17.785,2.267,2.267,0,0,1,.53.705A1.994,1.994,0,0,1,186.33,1.133Z" transform="translate(700.54 459)" fill="#ffffff"></path></g></svg>